<svg xmlns="http://www.w3.org/2000/svg" data-name="Capa 1" viewBox="0 0 248.71 233.94">
  <path d="M6.85 92.39c9.27-9.43 24.42-9.57 33.85-.31l61.22 60.1c12.73 12.5 33.19 12.32 45.69-.42l60.11-61.23c9.25-9.43 24.41-9.57 33.83-.31 9.43 9.26 9.57 24.41.31 33.84l-101.8 103.71c-7.99 8.13-21.05 8.25-29.19.27L7.16 126.23c-9.43-9.26-9.57-24.41-.31-33.84Z"/>
  <path d="M53.67 8.14c9.25-9.43 24.41-9.57 33.83-.31l19.7 19.34c9.15 8.97 23.83 8.84 32.8-.3l19.34-19.7c9.25-9.43 24.41-9.57 33.83-.31 9.44 9.26 9.58 24.41.31 33.84l-54.65 55.67c-7.99 8.14-21.05 8.26-29.19.27L53.97 41.99c-9.43-9.25-9.57-24.41-.31-33.84Z"/>
</svg>
